<svg width="193" height="34" viewBox="0 0 193 34" fill="none" xmlns="http://www.w3.org/2000/svg">
<path d="M1.672 26C1.432 26 1.228 25.916 1.06 25.748C0.892 25.58 0.808 25.376 0.808 25.136V1.7C0.808 1.436 0.88 1.22 1.024 1.052C1.192 0.883999 1.408 0.799998 1.672 0.799998H4.948C5.212 0.799998 5.416 0.883999 5.56 1.052C5.728 1.22 5.812 1.436 5.812 1.7V10.988H16.432V1.7C16.432 1.436 16.504 1.22 16.648 1.052C16.816 0.883999 17.032 0.799998 17.296 0.799998H20.536C20.8 0.799998 21.016 0.883999 21.184 1.052C21.352 1.22 21.436 1.436 21.436 1.7V25.136C21.436 25.4 21.352 25.616 21.184 25.784C21.016 25.928 20.8 26 20.536 26H17.296C17.056 26 16.852 25.916 16.684 25.748C16.516 25.58 16.432 25.376 16.432 25.136V15.488H5.812V25.136C5.812 25.376 5.728 25.58 5.56 25.748C5.416 25.916 5.212 26 4.948 26H1.672ZM32.0386 26.36C30.8146 26.36 29.6866 26.12 28.6546 25.64C27.6466 25.136 26.8426 24.464 26.2426 23.624C25.6666 22.784 25.3786 21.86 25.3786 20.852C25.3786 19.22 26.0386 17.9 27.3586 16.892C28.6786 15.884 30.4906 15.2 32.7946 14.84L37.7266 14.12V13.364C37.7266 12.308 37.4626 11.516 36.9346 10.988C36.4066 10.46 35.5546 10.196 34.3786 10.196C33.5866 10.196 32.9386 10.352 32.4346 10.664C31.9546 10.952 31.5706 11.24 31.2826 11.528C30.9946 11.84 30.8026 12.044 30.7066 12.14C30.6106 12.428 30.4306 12.572 30.1666 12.572H27.3946C27.1786 12.572 26.9866 12.5 26.8186 12.356C26.6746 12.212 26.6026 12.02 26.6026 11.78C26.6266 11.18 26.9146 10.496 27.4666 9.728C28.0426 8.96 28.9186 8.3 30.0946 7.748C31.2706 7.196 32.7106 6.92 34.4146 6.92C37.2466 6.92 39.3106 7.556 40.6066 8.828C41.9026 10.1 42.5506 11.768 42.5506 13.832V25.136C42.5506 25.376 42.4666 25.58 42.2986 25.748C42.1546 25.916 41.9506 26 41.6866 26H38.7706C38.5306 26 38.3266 25.916 38.1586 25.748C37.9906 25.58 37.9066 25.376 37.9066 25.136V23.732C37.3786 24.5 36.6226 25.136 35.6386 25.64C34.6786 26.12 33.4786 26.36 32.0386 26.36ZM33.2626 22.94C34.5826 22.94 35.6626 22.508 36.5026 21.644C37.3426 20.78 37.7626 19.52 37.7626 17.864V17.108L34.1626 17.684C32.7706 17.9 31.7146 18.248 30.9946 18.728C30.2986 19.208 29.9506 19.796 29.9506 20.492C29.9506 21.26 30.2746 21.86 30.9226 22.292C31.5706 22.724 32.3506 22.94 33.2626 22.94ZM48.069 32.84C47.829 32.84 47.625 32.756 47.457 32.588C47.289 32.444 47.205 32.24 47.205 31.976V8.144C47.205 7.88 47.289 7.676 47.457 7.532C47.625 7.364 47.829 7.28 48.069 7.28H50.913C51.177 7.28 51.381 7.364 51.525 7.532C51.693 7.676 51.777 7.88 51.777 8.144V9.584C53.121 7.808 55.041 6.92 57.537 6.92C59.961 6.92 61.821 7.688 63.117 9.224C64.413 10.736 65.109 12.788 65.205 15.38C65.229 15.668 65.241 16.088 65.241 16.64C65.241 17.216 65.229 17.648 65.205 17.936C65.109 20.456 64.413 22.496 63.117 24.056C61.821 25.592 59.961 26.36 57.537 26.36C55.113 26.36 53.265 25.508 51.993 23.804V31.976C51.993 32.24 51.909 32.444 51.741 32.588C51.597 32.756 51.393 32.84 51.129 32.84H48.069ZM56.205 22.508C58.797 22.508 60.177 20.912 60.345 17.72C60.369 17.48 60.381 17.12 60.381 16.64C60.381 16.16 60.369 15.8 60.345 15.56C60.177 12.368 58.797 10.772 56.205 10.772C54.813 10.772 53.781 11.216 53.109 12.104C52.437 12.992 52.065 14.084 51.993 15.38L51.957 16.748L51.993 18.152C52.041 19.352 52.413 20.384 53.109 21.248C53.829 22.088 54.861 22.508 56.205 22.508ZM70.1823 32.84C69.9423 32.84 69.7383 32.756 69.5703 32.588C69.4023 32.444 69.3183 32.24 69.3183 31.976V8.144C69.3183 7.88 69.4023 7.676 69.5703 7.532C69.7383 7.364 69.9423 7.28 70.1823 7.28H73.0263C73.2903 7.28 73.4943 7.364 73.6383 7.532C73.8063 7.676 73.8903 7.88 73.8903 8.144V9.584C75.2343 7.808 77.1543 6.92 79.6503 6.92C82.0743 6.92 83.9343 7.688 85.2303 9.224C86.5263 10.736 87.2223 12.788 87.3183 15.38C87.3423 15.668 87.3543 16.088 87.3543 16.64C87.3543 17.216 87.3423 17.648 87.3183 17.936C87.2223 20.456 86.5263 22.496 85.2303 24.056C83.9343 25.592 82.0743 26.36 79.6503 26.36C77.2263 26.36 75.3783 25.508 74.1063 23.804V31.976C74.1063 32.24 74.0223 32.444 73.8543 32.588C73.7103 32.756 73.5063 32.84 73.2423 32.84H70.1823ZM78.3183 22.508C80.9103 22.508 82.2903 20.912 82.4583 17.72C82.4823 17.48 82.4943 17.12 82.4943 16.64C82.4943 16.16 82.4823 15.8 82.4583 15.56C82.2903 12.368 80.9103 10.772 78.3183 10.772C76.9263 10.772 75.8943 11.216 75.2223 12.104C74.5503 12.992 74.1783 14.084 74.1063 15.38L74.0703 16.748L74.1063 18.152C74.1543 19.352 74.5263 20.384 75.2223 21.248C75.9423 22.088 76.9743 22.508 78.3183 22.508ZM94.0061 32.84C93.8141 32.84 93.6461 32.768 93.5021 32.624C93.3581 32.48 93.2861 32.312 93.2861 32.12C93.2861 31.904 93.3341 31.712 93.4301 31.544L96.2381 24.884L89.3261 8.576C89.2301 8.36 89.1821 8.192 89.1821 8.072C89.2061 7.856 89.2901 7.676 89.4341 7.532C89.5781 7.364 89.7581 7.28 89.9741 7.28H92.8901C93.3461 7.28 93.6701 7.508 93.8621 7.964L98.6501 19.736L103.582 7.964C103.774 7.508 104.098 7.28 104.554 7.28H107.434C107.626 7.28 107.794 7.352 107.938 7.496C108.106 7.64 108.19 7.808 108.19 8C108.19 8.168 108.142 8.36 108.046 8.576L97.8581 32.156C97.6421 32.612 97.3061 32.84 96.8501 32.84H94.0061ZM112.59 26C112.35 26 112.146 25.916 111.978 25.748C111.81 25.58 111.726 25.376 111.726 25.136V1.664C111.726 1.4 111.81 1.196 111.978 1.052C112.146 0.883999 112.35 0.799998 112.59 0.799998H115.938C116.202 0.799998 116.406 0.883999 116.55 1.052C116.718 1.196 116.802 1.4 116.802 1.664V21.716H128.214C128.478 21.716 128.694 21.8 128.862 21.968C129.03 22.136 129.114 22.352 129.114 22.616V25.136C129.114 25.4 129.03 25.616 128.862 25.784C128.694 25.928 128.478 26 128.214 26H112.59ZM137.613 26.36C136.389 26.36 135.261 26.12 134.229 25.64C133.221 25.136 132.417 24.464 131.817 23.624C131.241 22.784 130.953 21.86 130.953 20.852C130.953 19.22 131.613 17.9 132.933 16.892C134.253 15.884 136.065 15.2 138.369 14.84L143.301 14.12V13.364C143.301 12.308 143.037 11.516 142.509 10.988C141.981 10.46 141.129 10.196 139.953 10.196C139.161 10.196 138.513 10.352 138.009 10.664C137.529 10.952 137.145 11.24 136.857 11.528C136.569 11.84 136.377 12.044 136.281 12.14C136.185 12.428 136.005 12.572 135.741 12.572H132.969C132.753 12.572 132.561 12.5 132.393 12.356C132.249 12.212 132.177 12.02 132.177 11.78C132.201 11.18 132.489 10.496 133.041 9.728C133.617 8.96 134.493 8.3 135.669 7.748C136.845 7.196 138.285 6.92 139.989 6.92C142.821 6.92 144.885 7.556 146.181 8.828C147.477 10.1 148.125 11.768 148.125 13.832V25.136C148.125 25.376 148.041 25.58 147.873 25.748C147.729 25.916 147.525 26 147.261 26H144.345C144.105 26 143.901 25.916 143.733 25.748C143.565 25.58 143.481 25.376 143.481 25.136V23.732C142.953 24.5 142.197 25.136 141.213 25.64C140.253 26.12 139.053 26.36 137.613 26.36ZM138.837 22.94C140.157 22.94 141.237 22.508 142.077 21.644C142.917 20.78 143.337 19.52 143.337 17.864V17.108L139.737 17.684C138.345 17.9 137.289 18.248 136.569 18.728C135.873 19.208 135.525 19.796 135.525 20.492C135.525 21.26 135.849 21.86 136.497 22.292C137.145 22.724 137.925 22.94 138.837 22.94ZM153.607 26C153.367 26 153.163 25.916 152.995 25.748C152.827 25.58 152.743 25.376 152.743 25.136V8.144C152.743 7.904 152.827 7.7 152.995 7.532C153.163 7.364 153.367 7.28 153.607 7.28H156.559C156.799 7.28 157.003 7.364 157.171 7.532C157.339 7.7 157.423 7.904 157.423 8.144V9.62C158.839 7.82 160.843 6.92 163.435 6.92C165.643 6.92 167.395 7.652 168.691 9.116C169.987 10.556 170.635 12.524 170.635 15.02V25.136C170.635 25.376 170.551 25.58 170.383 25.748C170.239 25.916 170.035 26 169.771 26H166.603C166.363 26 166.159 25.916 165.991 25.748C165.823 25.58 165.739 25.376 165.739 25.136V15.236C165.739 13.82 165.391 12.728 164.695 11.96C164.023 11.168 163.039 10.772 161.743 10.772C160.471 10.772 159.463 11.168 158.719 11.96C157.999 12.752 157.639 13.844 157.639 15.236V25.136C157.639 25.376 157.555 25.58 157.387 25.748C157.243 25.916 157.039 26 156.775 26H153.607ZM183.668 33.92C181.532 33.92 179.804 33.56 178.484 32.84C177.164 32.144 176.228 31.34 175.676 30.428C175.124 29.516 174.848 28.736 174.848 28.088C174.848 27.872 174.932 27.68 175.1 27.512C175.292 27.344 175.496 27.26 175.712 27.26H178.844C179.06 27.26 179.24 27.308 179.384 27.404C179.552 27.524 179.684 27.728 179.78 28.016C180.02 28.664 180.404 29.204 180.932 29.636C181.484 30.092 182.336 30.32 183.488 30.32C184.928 30.32 185.984 29.996 186.656 29.348C187.352 28.7 187.7 27.584 187.7 26V23.552C186.38 25.112 184.532 25.892 182.156 25.892C179.66 25.892 177.776 25.124 176.504 23.588C175.256 22.052 174.584 19.988 174.488 17.396L174.452 16.424L174.488 15.452C174.584 12.908 175.268 10.856 176.54 9.296C177.812 7.712 179.684 6.92 182.156 6.92C183.428 6.92 184.544 7.16 185.504 7.64C186.464 8.12 187.268 8.78 187.916 9.62V8.18C187.916 7.916 188 7.7 188.168 7.532C188.336 7.364 188.54 7.28 188.78 7.28H191.696C191.936 7.28 192.14 7.376 192.308 7.568C192.476 7.736 192.56 7.94 192.56 8.18L192.596 25.532C192.596 28.196 191.852 30.26 190.364 31.724C188.876 33.188 186.644 33.92 183.668 33.92ZM183.488 22.076C184.856 22.076 185.876 21.644 186.548 20.78C187.244 19.916 187.628 18.86 187.7 17.612C187.724 17.42 187.736 17.024 187.736 16.424C187.736 15.848 187.724 15.464 187.7 15.272C187.628 14 187.244 12.932 186.548 12.068C185.876 11.204 184.856 10.772 183.488 10.772C180.896 10.772 179.528 12.368 179.384 15.56L179.348 16.424C179.348 18.128 179.648 19.496 180.248 20.528C180.872 21.56 181.952 22.076 183.488 22.076Z" fill="#54A0FF"/>
</svg>
